<mxfile host="app.diagrams.net" modified="2023-10-21T17:29:58.268Z" agent="Mozilla/5.0 (Macintosh; Intel Mac OS X 10_11_6) AppleWebKit/537.36 (KHTML, like Gecko) Chrome/103.0.0.0 Safari/537.36" version="22.0.6" etag="RiPgDbUi-ukHd9mUf4oD" type="github">
  <diagram name="PÃ¡gina-1" id="ZL9FER-hk2I9ghn8vaq_">
    <mxGraphModel>
      <root>
        <mxCell id="0" />
        <mxCell id="1" parent="0" />
      </root>
    </mxGraphModel>
  </diagram>
</mxfile>
